<?xml version="1.0" encoding="UTF-8"?>
<!DOCTYPE svg PUBLIC "-//W3C//DTD SVG 1.1//EN" "http://www.w3.org/Graphics/SVG/1.1/DTD/svg11.dtd">
<svg xmlns="http://www.w3.org/2000/svg" version="1.1" width="538px" height="546px" style="shape-rendering:geometricPrecision; text-rendering:geometricPrecision; image-rendering:optimizeQuality; fill-rule:evenodd; clip-rule:evenodd" xmlns:xlink="http://www.w3.org/1999/xlink">
<g><path style="opacity:1" fill="#fefefe" d="M -0.5,-0.5 C 178.833,-0.5 358.167,-0.5 537.5,-0.5C 537.5,181.5 537.5,363.5 537.5,545.5C 358.167,545.5 178.833,545.5 -0.5,545.5C -0.5,363.5 -0.5,181.5 -0.5,-0.5 Z"/></g>
<g><path style="opacity:1" fill="#75e498" d="M 271.5,166.5 C 262.523,167.514 253.523,167.681 244.5,167C 243.307,165.905 241.973,165.072 240.5,164.5C 238.898,162.926 236.898,162.259 234.5,162.5C 222.676,157.18 213.51,148.847 207,137.5C 197.619,118.426 196.119,98.759 202.5,78.5C 203.906,78.0269 204.573,77.0269 204.5,75.5C 208.45,65.5934 214.783,57.5934 223.5,51.5C 226.003,49.1673 228.669,47.0007 231.5,45C 265.979,32.5744 292.812,42.0744 312,73.5C 324.286,104.527 318.452,131.694 294.5,155C 287.261,159.875 279.594,163.708 271.5,166.5 Z"/></g>
<g><path style="opacity:1" fill="#7287bb" d="M 204.5,75.5 C 204.573,77.0269 203.906,78.0269 202.5,78.5C 202.427,76.9731 203.094,75.9731 204.5,75.5 Z"/></g>
<g><path style="opacity:1" fill="#7128d9" d="M 223.5,51.5 C 214.783,57.5934 208.45,65.5934 204.5,75.5C 203.094,75.9731 202.427,76.9731 202.5,78.5C 196.119,98.759 197.619,118.426 207,137.5C 213.51,148.847 222.676,157.18 234.5,162.5C 236.102,164.074 238.102,164.741 240.5,164.5C 241.973,165.072 243.307,165.905 244.5,167C 253.523,167.681 262.523,167.514 271.5,166.5C 272.552,166.351 273.552,166.517 274.5,167C 265.72,172.949 257.72,179.782 250.5,187.5C 247.6,186.046 246.267,187.046 246.5,190.5C 242.578,189.894 238.745,188.894 235,187.5C 200.237,173.56 165.07,159.727 129.5,146C 126.871,143.211 127.538,141.211 131.5,140C 130.906,139.536 130.239,139.369 129.5,139.5C 153.884,105.952 183.218,77.1183 217.5,53C 219.167,52.1667 220.833,51.3333 222.5,50.5C 223.107,50.6236 223.44,50.9569 223.5,51.5 Z"/></g>
<g><path style="opacity:1" fill="#6d24d1" d="M 129.5,139.5 C 130.239,139.369 130.906,139.536 131.5,140C 127.538,141.211 126.871,143.211 129.5,146C 165.07,159.727 200.237,173.56 235,187.5C 238.745,188.894 242.578,189.894 246.5,190.5C 246.267,187.046 247.6,186.046 250.5,187.5C 239.158,199.51 228.158,211.843 217.5,224.5C 216.325,224.281 215.325,224.614 214.5,225.5C 214.023,226.931 213.357,228.264 212.5,229.5C 205.263,226.298 198.096,222.965 191,219.5C 190.586,219.957 190.086,220.291 189.5,220.5C 159.475,208.302 129.808,196.302 100.5,184.5C 99.5661,182.905 99.5661,181.239 100.5,179.5C 105.417,171.401 110.584,163.401 116,155.5C 119.989,149.683 124.489,144.349 129.5,139.5 Z"/></g>
<g><path style="opacity:1" fill="#6fa8aa" d="M 234.5,162.5 C 236.898,162.259 238.898,162.926 240.5,164.5C 238.102,164.741 236.102,164.074 234.5,162.5 Z"/></g>
<g><path style="opacity:1" fill="#75e598" d="M 399.5,454.5 C 398.167,453.5 396.833,452.5 395.5,451.5C 389.692,444.059 385.026,435.893 381.5,427C 371.564,385.673 357.23,346.173 338.5,308.5C 338.167,307.833 337.833,307.167 337.5,306.5C 331.635,293.768 325.468,281.102 319,268.5C 309.573,235.115 318.74,207.948 346.5,187C 375.776,174.122 401.276,179.288 423,202.5C 428.256,209.341 432.756,216.675 436.5,224.5C 456.041,261.91 472.541,300.576 486,340.5C 490.439,356.129 494.772,371.796 499,387.5C 504.071,414.435 496.905,437.269 477.5,456C 461.678,469.119 443.678,473.119 423.5,468C 414.254,465.444 406.254,460.944 399.5,454.5 Z"/></g>
<g><path style="opacity:1" fill="#6923ca" d="M 100.5,179.5 C 99.5661,181.239 99.5661,182.905 100.5,184.5C 129.808,196.302 159.475,208.302 189.5,220.5C 190.086,220.291 190.586,219.957 191,219.5C 198.096,222.965 205.263,226.298 212.5,229.5C 213.357,228.264 214.023,226.931 214.5,225.5C 215.325,224.614 216.325,224.281 217.5,224.5C 208.83,237.175 200.164,249.842 191.5,262.5C 190.733,261.828 190.066,260.995 189.5,260C 178.339,257.447 167.673,253.614 157.5,248.5C 156.914,248.709 156.414,249.043 156,249.5C 153.429,247.647 150.762,245.981 148,244.5C 147.586,244.957 147.086,245.291 146.5,245.5C 125.939,236.147 105.106,227.481 84,219.5C 82.4748,219.112 80.8082,219.112 79,219.5C 79.1571,217.169 79.6571,214.836 80.5,212.5C 86.3799,200.969 93.0466,189.969 100.5,179.5 Z"/></g>
<g><path style="opacity:1" fill="#6622c4" d="M 80.5,212.5 C 79.6571,214.836 79.1571,217.169 79,219.5C 80.8082,219.112 82.4748,219.112 84,219.5C 105.106,227.481 125.939,236.147 146.5,245.5C 147.086,245.291 147.586,244.957 148,244.5C 150.762,245.981 153.429,247.647 156,249.5C 156.414,249.043 156.914,248.709 157.5,248.5C 167.673,253.614 178.339,257.447 189.5,260C 190.066,260.995 190.733,261.828 191.5,262.5C 183.99,274.85 176.99,287.516 170.5,300.5C 170.195,298.434 169.861,296.267 169.5,294C 138.131,281.948 107.131,269.781 76.5,257.5C 71.6468,256.787 66.9801,255.454 62.5,253.5C 61.8076,254.025 61.3076,254.692 61,255.5C 60.9822,253.203 61.1489,250.869 61.5,248.5C 65.0654,240.369 68.8987,232.369 73,224.5C 75.2746,220.268 77.7746,216.268 80.5,212.5 Z"/></g>
<g><path style="opacity:1" fill="#6221bd" d="M 61.5,248.5 C 61.1489,250.869 60.9822,253.203 61,255.5C 61.3076,254.692 61.8076,254.025 62.5,253.5C 66.9801,255.454 71.6468,256.787 76.5,257.5C 107.131,269.781 138.131,281.948 169.5,294C 169.861,296.267 170.195,298.434 170.5,300.5C 168.884,304.065 167.551,307.731 166.5,311.5C 168.5,311.5 170.5,311.5 172.5,311.5C 172.5,311.833 172.5,312.167 172.5,312.5C 167.241,311.487 161.908,311.654 156.5,313C 141.402,316.691 126.402,320.524 111.5,324.5C 105.815,325.779 100.148,327.445 94.5,329.5C 91.1315,327.428 87.6315,325.428 84,323.5C 83.6667,323.833 83.3333,324.167 83,324.5C 69.1835,319.005 55.3502,313.505 41.5,308C 40.6433,307.311 39.9767,306.478 39.5,305.5C 39.838,303.345 39.838,301.011 39.5,298.5C 45.8682,281.39 53.2016,264.724 61.5,248.5 Z"/></g>
<g><path style="opacity:1" fill="#8c5bce" d="M 320.5,305.5 C 309.836,305.088 299.17,304.755 288.5,304.5C 276.5,304.5 264.5,304.5 252.5,304.5C 244.833,304.5 237.167,304.5 229.5,304.5C 242.131,302.983 254.964,302.316 268,302.5C 285.73,302.161 303.23,303.161 320.5,305.5 Z"/></g>
<g><path style="opacity:1" fill="#6521c4" d="M 229.5,304.5 C 237.167,304.5 244.833,304.5 252.5,304.5C 251.365,306.213 249.698,306.88 247.5,306.5C 247.5,347.167 247.5,387.833 247.5,428.5C 251.514,428.334 255.514,428.501 259.5,429C 256.635,429.183 253.969,429.683 251.5,430.5C 242.157,430.756 232.824,431.256 223.5,432C 222.263,432.232 221.263,432.732 220.5,433.5C 217.5,433.5 214.5,433.5 211.5,433.5C 213.969,432.683 216.635,432.183 219.5,432C 216.518,431.502 213.518,431.335 210.5,431.5C 210.5,390.5 210.5,349.5 210.5,308.5C 218.5,308.167 218.5,307.833 210.5,307.5C 216.757,306.016 223.09,305.016 229.5,304.5 Z"/></g>
<g><path style="opacity:1" fill="#6220be" d="M 252.5,304.5 C 264.5,304.5 276.5,304.5 288.5,304.5C 288.53,305.497 288.03,306.164 287,306.5C 285.584,305.427 284.25,305.427 283,306.5C 282.5,347.165 282.333,387.832 282.5,428.5C 285.518,428.335 288.518,428.502 291.5,429C 290.263,429.232 289.263,429.732 288.5,430.5C 276.167,430.5 263.833,430.5 251.5,430.5C 253.969,429.683 256.635,429.183 259.5,429C 255.514,428.501 251.514,428.334 247.5,428.5C 247.5,387.833 247.5,347.167 247.5,306.5C 249.698,306.88 251.365,306.213 252.5,304.5 Z"/></g>
<g><path style="opacity:1" fill="#5f1fb8" d="M 288.5,304.5 C 299.17,304.755 309.836,305.088 320.5,305.5C 323.5,306.167 326.5,306.833 329.5,307.5C 327.052,308.473 324.385,308.806 321.5,308.5C 321.5,349.5 321.5,390.5 321.5,431.5C 319.958,432.609 316.291,432.943 310.5,432.5C 304.211,431.628 297.878,431.295 291.5,431.5C 290.791,430.596 289.791,430.263 288.5,430.5C 289.263,429.732 290.263,429.232 291.5,429C 288.518,428.502 285.518,428.335 282.5,428.5C 282.333,387.832 282.5,347.165 283,306.5C 284.25,305.427 285.584,305.427 287,306.5C 288.03,306.164 288.53,305.497 288.5,304.5 Z"/></g>
<g><path style="opacity:1" fill="#b592e4" d="M 209.5,305.5 C 205.02,306.521 200.353,307.187 195.5,307.5C 196.263,306.732 197.263,306.232 198.5,306C 202.152,305.501 205.818,305.335 209.5,305.5 Z"/></g>
<g><path style="opacity:1" fill="#8e59d5" d="M 229.5,304.5 C 223.09,305.016 216.757,306.016 210.5,307.5C 197.821,308.38 185.154,309.38 172.5,310.5C 179.937,308.778 187.604,307.778 195.5,307.5C 200.353,307.187 205.02,306.521 209.5,305.5C 216.078,304.54 222.745,304.207 229.5,304.5 Z"/></g>
<g><path style="opacity:1" fill="#9b76d0" d="M 320.5,305.5 C 326.189,305.532 331.855,305.866 337.5,306.5C 337.833,307.167 338.167,307.833 338.5,308.5C 335.518,308.037 332.518,307.704 329.5,307.5C 326.5,306.833 323.5,306.167 320.5,305.5 Z"/></g>
<g><path style="opacity:1" fill="#6923ca" d="M 210.5,307.5 C 218.5,307.833 218.5,308.167 210.5,308.5C 210.5,349.5 210.5,390.5 210.5,431.5C 213.518,431.335 216.518,431.502 219.5,432C 216.635,432.183 213.969,432.683 211.5,433.5C 206.78,434.21 202.113,435.21 197.5,436.5C 192.833,437.167 188.167,437.833 183.5,438.5C 181.708,438.366 180.042,438.699 178.5,439.5C 177.081,438.549 175.415,438.216 173.5,438.5C 173.832,396.33 173.499,354.33 172.5,312.5C 172.5,312.167 172.5,311.833 172.5,311.5C 172.5,311.167 172.5,310.833 172.5,310.5C 185.154,309.38 197.821,308.38 210.5,307.5 Z"/></g>
<g><path style="opacity:1" fill="#5c20b1" d="M 329.5,307.5 C 332.518,307.704 335.518,308.037 338.5,308.5C 357.23,346.173 371.564,385.673 381.5,427C 385.026,435.893 389.692,444.059 395.5,451.5C 395.158,452.338 394.492,452.672 393.5,452.5C 380.7,447.391 367.7,443.391 354.5,440.5C 352.485,439.076 350.152,438.41 347.5,438.5C 335.312,435.858 322.979,434.191 310.5,433.5C 310.5,433.167 310.5,432.833 310.5,432.5C 316.291,432.943 319.958,432.609 321.5,431.5C 321.5,390.5 321.5,349.5 321.5,308.5C 324.385,308.806 327.052,308.473 329.5,307.5 Z"/></g>
<g><path style="opacity:1" fill="#5e20b6" d="M 39.5,298.5 C 39.838,301.011 39.838,303.345 39.5,305.5C 39.9767,306.478 40.6433,307.311 41.5,308C 55.3502,313.505 69.1835,319.005 83,324.5C 83.3333,324.167 83.6667,323.833 84,323.5C 87.6315,325.428 91.1315,327.428 94.5,329.5C 84.0546,333.199 73.3879,336.699 62.5,340C 61.944,340.383 61.6107,340.883 61.5,341.5C 52.846,344.037 44.846,347.704 37.5,352.5C 35.4048,353.412 33.4048,354.579 31.5,356C 25.7945,361.958 20.4611,368.125 15.5,374.5C 22.124,348.693 30.124,323.359 39.5,298.5 Z"/></g>
<g><path style="opacity:1" fill="#6c24d1" d="M 172.5,312.5 C 173.499,354.33 173.832,396.33 173.5,438.5C 175.415,438.216 177.081,438.549 178.5,439.5C 175.772,439.171 173.438,439.837 171.5,441.5C 158.242,443.818 145.242,447.152 132.5,451.5C 132.182,408.106 132.516,364.606 133.5,321C 126.296,322.46 118.963,323.627 111.5,324.5C 126.402,320.524 141.402,316.691 156.5,313C 161.908,311.654 167.241,311.487 172.5,312.5 Z"/></g>
<g><path style="opacity:1" fill="#7025d7" d="M 132.5,451.5 C 122.298,454.217 112.298,457.551 102.5,461.5C 101.432,460.566 100.099,460.232 98.5,460.5C 98.6667,417.165 98.5,373.832 98,330.5C 85.766,334.039 73.5994,337.706 61.5,341.5C 61.6107,340.883 61.944,340.383 62.5,340C 73.3879,336.699 84.0546,333.199 94.5,329.5C 100.148,327.445 105.815,325.779 111.5,324.5C 118.963,323.627 126.296,322.46 133.5,321C 132.516,364.606 132.182,408.106 132.5,451.5 Z"/></g>
<g><path style="opacity:1" fill="#7327dd" d="M 102.5,461.5 C 93.8791,465.416 84.8791,468.582 75.5,471C 69.418,471.788 63.418,471.621 57.5,470.5C 57.5,470.167 57.5,469.833 57.5,469.5C 64.5079,469.666 71.5079,469.5 78.5,469C 73.8452,468.501 69.1785,468.334 64.5,468.5C 64.8332,426.495 64.4999,384.495 63.5,342.5C 54.7225,345.646 46.0558,348.98 37.5,352.5C 44.846,347.704 52.846,344.037 61.5,341.5C 73.5994,337.706 85.766,334.039 98,330.5C 98.5,373.832 98.6667,417.165 98.5,460.5C 100.099,460.232 101.432,460.566 102.5,461.5 Z"/></g>
<g><path style="opacity:1" fill="#7729e5" d="M 57.5,469.5 C 54.779,469.037 52.1123,468.371 49.5,467.5C 33.7161,462.049 22.3827,451.716 15.5,436.5C 15.2451,434.033 14.2451,432.033 12.5,430.5C 7.16877,415.186 7.16877,399.853 12.5,384.5C 13.9238,382.485 14.5905,380.152 14.5,377.5C 14.5569,376.391 14.8902,375.391 15.5,374.5C 20.4611,368.125 25.7945,361.958 31.5,356C 33.4048,354.579 35.4048,353.412 37.5,352.5C 46.0558,348.98 54.7225,345.646 63.5,342.5C 64.4999,384.495 64.8332,426.495 64.5,468.5C 69.1785,468.334 73.8452,468.501 78.5,469C 71.5079,469.5 64.5079,469.666 57.5,469.5 Z"/></g>
<g><path style="opacity:1" fill="#b58fe8" d="M 14.5,377.5 C 14.5905,380.152 13.9238,382.485 12.5,384.5C 12.4095,381.848 13.0762,379.515 14.5,377.5 Z"/></g>
<g><path style="opacity:1" fill="#c1a6e6" d="M 251.5,430.5 C 263.833,430.5 276.167,430.5 288.5,430.5C 289.791,430.263 290.791,430.596 291.5,431.5C 267.795,431.153 244.129,431.82 220.5,433.5C 221.263,432.732 222.263,432.232 223.5,432C 232.824,431.256 242.157,430.756 251.5,430.5 Z"/></g>
<g><path style="opacity:1" fill="#c0a6e3" d="M 291.5,431.5 C 297.878,431.295 304.211,431.628 310.5,432.5C 310.5,432.833 310.5,433.167 310.5,433.5C 303.984,433.21 297.65,432.543 291.5,431.5 Z"/></g>
<g><path style="opacity:1" fill="#decef2" d="M 211.5,433.5 C 214.5,433.5 217.5,433.5 220.5,433.5C 219.737,434.268 218.737,434.768 217.5,435C 210.823,435.453 204.156,435.953 197.5,436.5C 202.113,435.21 206.78,434.21 211.5,433.5 Z"/></g>
<g><path style="opacity:1" fill="#ccacf6" d="M 12.5,430.5 C 14.2451,432.033 15.2451,434.033 15.5,436.5C 13.7549,434.967 12.7549,432.967 12.5,430.5 Z"/></g>
<g><path style="opacity:1" fill="#b99edd" d="M 347.5,438.5 C 350.152,438.41 352.485,439.076 354.5,440.5C 352.473,440.662 350.473,440.495 348.5,440C 347.944,439.617 347.611,439.117 347.5,438.5 Z"/></g>
<g><path style="opacity:1" fill="#c2a4ea" d="M 183.5,438.5 C 179.841,440.342 175.841,441.342 171.5,441.5C 173.438,439.837 175.772,439.171 178.5,439.5C 180.042,438.699 181.708,438.366 183.5,438.5 Z"/></g>
<g><path style="opacity:1" fill="#927fc4" d="M 395.5,451.5 C 396.833,452.5 398.167,453.5 399.5,454.5C 397.316,455.108 395.316,454.441 393.5,452.5C 394.492,452.672 395.158,452.338 395.5,451.5 Z"/></g>
<g><path style="opacity:1" fill="#c6a4f3" d="M 49.5,467.5 C 52.1123,468.371 54.779,469.037 57.5,469.5C 57.5,469.833 57.5,470.167 57.5,470.5C 54.284,470.655 51.6174,469.655 49.5,467.5 Z"/></g>
</svg>
